<mxfile host="app.diagrams.net" agent="Mozilla/5.0 (Macintosh; Intel Mac OS X 10_15_7) AppleWebKit/537.36 (KHTML, like Gecko) Chrome/128.0.0.0 Safari/537.36" version="24.7.7">
  <diagram name="Страница — 1" id="CsN8JD5v0jE8l4qOuqXD">
    <mxGraphModel dx="1946" dy="892" grid="0" gridSize="10" guides="1" tooltips="1" connect="1" arrows="1" fold="1" page="0" pageScale="1" pageWidth="827" pageHeight="1169" math="0" shadow="0">
      <root>
        <mxCell id="0" />
        <mxCell id="1" parent="0" />
        <mxCell id="BUtJAP7t2aVlMMfw0Nkz-8" value="Is it template diet found?" style="rhombus;whiteSpace=wrap;html=1;fillColor=#fff2cc;gradientColor=#ffd966;strokeColor=#d6b656;" vertex="1" parent="1">
          <mxGeometry x="267.5" y="510" width="125" height="120" as="geometry" />
        </mxCell>
        <mxCell id="BUtJAP7t2aVlMMfw0Nkz-11" value="You do not have training plan for the date" style="rounded=1;whiteSpace=wrap;html=1;fillColor=#f8cecc;gradientColor=#ea6b66;strokeColor=#b85450;" vertex="1" parent="1">
          <mxGeometry x="580" y="550.5" width="120" height="39" as="geometry" />
        </mxCell>
        <mxCell id="BUtJAP7t2aVlMMfw0Nkz-19" value="Main customer screen" style="rounded=1;whiteSpace=wrap;html=1;fillColor=#d5e8d4;strokeColor=#82b366;gradientColor=#97d077;" vertex="1" parent="1">
          <mxGeometry x="270" y="266" width="120" height="39" as="geometry" />
        </mxCell>
        <mxCell id="BUtJAP7t2aVlMMfw0Nkz-20" value="Return DietDay data" style="rounded=1;whiteSpace=wrap;html=1;fillColor=#f8cecc;gradientColor=#ea6b66;strokeColor=#b85450;" vertex="1" parent="1">
          <mxGeometry x="-7.5" y="860" width="120" height="39" as="geometry" />
        </mxCell>
        <mxCell id="BUtJAP7t2aVlMMfw0Nkz-24" value="Is related diet day found?" style="rhombus;whiteSpace=wrap;html=1;fillColor=#fff2cc;gradientColor=#ffd966;strokeColor=#d6b656;" vertex="1" parent="1">
          <mxGeometry x="-13" y="675" width="125" height="120" as="geometry" />
        </mxCell>
        <mxCell id="BUtJAP7t2aVlMMfw0Nkz-25" value="Getting diet template by date and customer_id" style="rounded=0;whiteSpace=wrap;html=1;fillColor=#dae8fc;gradientColor=#7ea6e0;strokeColor=#6c8ebf;" vertex="1" parent="1">
          <mxGeometry x="259" y="390" width="142" height="50" as="geometry" />
        </mxCell>
        <mxCell id="BUtJAP7t2aVlMMfw0Nkz-26" value="Create new diet day for diet template with&amp;nbsp;specified date" style="rounded=0;whiteSpace=wrap;html=1;fillColor=#dae8fc;gradientColor=#7ea6e0;strokeColor=#6c8ebf;" vertex="1" parent="1">
          <mxGeometry x="189" y="710" width="142" height="50" as="geometry" />
        </mxCell>
        <mxCell id="BUtJAP7t2aVlMMfw0Nkz-27" value="Getting related daily diet by template diet and specified date" style="rounded=0;whiteSpace=wrap;html=1;fillColor=#dae8fc;gradientColor=#7ea6e0;strokeColor=#6c8ebf;" vertex="1" parent="1">
          <mxGeometry x="-18.5" y="545" width="142" height="50" as="geometry" />
        </mxCell>
        <mxCell id="BUtJAP7t2aVlMMfw0Nkz-28" value="" style="endArrow=classic;html=1;rounded=0;exitX=0.5;exitY=1;exitDx=0;exitDy=0;" edge="1" parent="1" source="BUtJAP7t2aVlMMfw0Nkz-19">
          <mxGeometry relative="1" as="geometry">
            <mxPoint x="240" y="460" as="sourcePoint" />
            <mxPoint x="330" y="390" as="targetPoint" />
          </mxGeometry>
        </mxCell>
        <mxCell id="BUtJAP7t2aVlMMfw0Nkz-29" value="customer_id and specified date" style="edgeLabel;resizable=0;html=1;;align=center;verticalAlign=middle;" connectable="0" vertex="1" parent="BUtJAP7t2aVlMMfw0Nkz-28">
          <mxGeometry relative="1" as="geometry">
            <mxPoint y="-6" as="offset" />
          </mxGeometry>
        </mxCell>
        <mxCell id="BUtJAP7t2aVlMMfw0Nkz-30" value="" style="endArrow=classic;html=1;rounded=0;exitX=0.5;exitY=1;exitDx=0;exitDy=0;entryX=0.5;entryY=0;entryDx=0;entryDy=0;" edge="1" parent="1" source="BUtJAP7t2aVlMMfw0Nkz-25" target="BUtJAP7t2aVlMMfw0Nkz-8">
          <mxGeometry width="50" height="50" relative="1" as="geometry">
            <mxPoint x="250" y="580" as="sourcePoint" />
            <mxPoint x="300" y="530" as="targetPoint" />
          </mxGeometry>
        </mxCell>
        <mxCell id="BUtJAP7t2aVlMMfw0Nkz-31" value="" style="endArrow=classic;html=1;rounded=0;exitX=0;exitY=0.5;exitDx=0;exitDy=0;entryX=1;entryY=0.5;entryDx=0;entryDy=0;" edge="1" parent="1" source="BUtJAP7t2aVlMMfw0Nkz-8" target="BUtJAP7t2aVlMMfw0Nkz-27">
          <mxGeometry relative="1" as="geometry">
            <mxPoint x="220" y="610" as="sourcePoint" />
            <mxPoint x="320" y="610" as="targetPoint" />
          </mxGeometry>
        </mxCell>
        <mxCell id="BUtJAP7t2aVlMMfw0Nkz-32" value="Yes" style="edgeLabel;resizable=0;html=1;;align=center;verticalAlign=middle;" connectable="0" vertex="1" parent="BUtJAP7t2aVlMMfw0Nkz-31">
          <mxGeometry relative="1" as="geometry">
            <mxPoint x="10" as="offset" />
          </mxGeometry>
        </mxCell>
        <mxCell id="BUtJAP7t2aVlMMfw0Nkz-33" value="" style="endArrow=classic;html=1;rounded=0;entryX=0;entryY=0.5;entryDx=0;entryDy=0;exitX=1;exitY=0.5;exitDx=0;exitDy=0;" edge="1" parent="1" source="BUtJAP7t2aVlMMfw0Nkz-8" target="BUtJAP7t2aVlMMfw0Nkz-11">
          <mxGeometry relative="1" as="geometry">
            <mxPoint x="500" y="610" as="sourcePoint" />
            <mxPoint x="320" y="640" as="targetPoint" />
          </mxGeometry>
        </mxCell>
        <mxCell id="BUtJAP7t2aVlMMfw0Nkz-34" value="No" style="edgeLabel;resizable=0;html=1;;align=center;verticalAlign=middle;" connectable="0" vertex="1" parent="BUtJAP7t2aVlMMfw0Nkz-33">
          <mxGeometry relative="1" as="geometry">
            <mxPoint x="-1" as="offset" />
          </mxGeometry>
        </mxCell>
        <mxCell id="BUtJAP7t2aVlMMfw0Nkz-36" value="" style="endArrow=classic;html=1;rounded=0;exitX=0.475;exitY=0.949;exitDx=0;exitDy=0;exitPerimeter=0;entryX=0.5;entryY=0;entryDx=0;entryDy=0;" edge="1" parent="1" target="BUtJAP7t2aVlMMfw0Nkz-24">
          <mxGeometry relative="1" as="geometry">
            <mxPoint x="49.94999999999993" y="595.4499999999999" as="sourcePoint" />
            <mxPoint x="50" y="673" as="targetPoint" />
          </mxGeometry>
        </mxCell>
        <mxCell id="BUtJAP7t2aVlMMfw0Nkz-37" value="template_diet.diet_days.filter(specified_date)" style="edgeLabel;resizable=0;html=1;;align=center;verticalAlign=middle;" connectable="0" vertex="1" parent="BUtJAP7t2aVlMMfw0Nkz-36">
          <mxGeometry relative="1" as="geometry" />
        </mxCell>
        <mxCell id="BUtJAP7t2aVlMMfw0Nkz-38" value="" style="endArrow=classic;html=1;rounded=0;exitX=0.5;exitY=1;exitDx=0;exitDy=0;entryX=0.474;entryY=0.01;entryDx=0;entryDy=0;entryPerimeter=0;" edge="1" parent="1" source="BUtJAP7t2aVlMMfw0Nkz-24" target="BUtJAP7t2aVlMMfw0Nkz-20">
          <mxGeometry relative="1" as="geometry">
            <mxPoint x="70" y="820" as="sourcePoint" />
            <mxPoint x="170" y="820" as="targetPoint" />
          </mxGeometry>
        </mxCell>
        <mxCell id="BUtJAP7t2aVlMMfw0Nkz-39" value="Yes" style="edgeLabel;resizable=0;html=1;;align=center;verticalAlign=middle;" connectable="0" vertex="1" parent="BUtJAP7t2aVlMMfw0Nkz-38">
          <mxGeometry relative="1" as="geometry">
            <mxPoint y="-3" as="offset" />
          </mxGeometry>
        </mxCell>
        <mxCell id="BUtJAP7t2aVlMMfw0Nkz-40" value="" style="endArrow=classic;html=1;rounded=0;entryX=0;entryY=0.5;entryDx=0;entryDy=0;" edge="1" parent="1" target="BUtJAP7t2aVlMMfw0Nkz-26">
          <mxGeometry relative="1" as="geometry">
            <mxPoint x="112" y="734.81" as="sourcePoint" />
            <mxPoint x="190" y="735" as="targetPoint" />
          </mxGeometry>
        </mxCell>
        <mxCell id="BUtJAP7t2aVlMMfw0Nkz-41" value="No" style="edgeLabel;resizable=0;html=1;;align=center;verticalAlign=middle;" connectable="0" vertex="1" parent="BUtJAP7t2aVlMMfw0Nkz-40">
          <mxGeometry relative="1" as="geometry">
            <mxPoint x="-2" as="offset" />
          </mxGeometry>
        </mxCell>
        <mxCell id="BUtJAP7t2aVlMMfw0Nkz-42" value="" style="endArrow=classic;html=1;rounded=0;exitX=0.5;exitY=1;exitDx=0;exitDy=0;entryX=1;entryY=0.5;entryDx=0;entryDy=0;" edge="1" parent="1" source="BUtJAP7t2aVlMMfw0Nkz-26" target="BUtJAP7t2aVlMMfw0Nkz-20">
          <mxGeometry width="50" height="50" relative="1" as="geometry">
            <mxPoint x="250" y="899" as="sourcePoint" />
            <mxPoint x="300" y="849" as="targetPoint" />
            <Array as="points">
              <mxPoint x="260" y="880" />
            </Array>
          </mxGeometry>
        </mxCell>
      </root>
    </mxGraphModel>
  </diagram>
</mxfile>
